<svg xmlns="http://www.w3.org/2000/svg" viewBox="0 0 640 420" role="img" aria-labelledby="heroTitle heroDesc">
  <title id="heroTitle">Юридична ілюстрація</title>
  <desc id="heroDesc">Стилізовані терези правосуддя на фоні міста</desc>
  <defs>
    <linearGradient id="bg" x1="0" x2="1" y1="0" y2="1">
      <stop offset="0%" stop-color="#10243d"/>
      <stop offset="100%" stop-color="#1d3b5d"/>
    </linearGradient>
  </defs>
  <rect width="640" height="420" rx="24" fill="url(#bg)"/>
  <circle cx="520" cy="82" r="34" fill="#d7b46a" opacity="0.2"/>
  <path d="M0 320c98-34 184-50 256-50 124 0 192 47 384 60v90H0z" fill="#0b1a2b"/>
  <g fill="none" stroke="#d7b46a" stroke-width="8" stroke-linecap="round" stroke-linejoin="round">
    <path d="M320 96v184"/>
    <path d="M238 132h164"/>
    <path d="M262 132l-44 84"/>
    <path d="M378 132l44 84"/>
    <path d="M210 216h104"/>
    <path d="M326 216h104"/>
    <path d="M272 280h96"/>
    <path d="M288 280l-18 44h100l-18-44"/>
  </g>
  <g fill="#d7b46a" opacity="0.15">
    <rect x="60" y="190" width="36" height="84" rx="4"/>
    <rect x="108" y="170" width="28" height="104" rx="4"/>
    <rect x="144" y="150" width="22" height="124" rx="4"/>
  </g>
</svg>
