<svg width="227" height="227" viewBox="0 0 227 227" fill="none" xmlns="http://www.w3.org/2000/svg">
<path d="M2.40212 0H73.2645C74.5912 0 75.6667 1.05317 75.6667 2.35233V151.725L148.281 1.34675C148.678 0.524439 149.524 0 150.452 0H223.208C224.971 0 226.133 1.79671 225.38 3.35717L156.556 146.016C155.803 147.576 156.966 149.373 158.728 149.373H224.598C225.925 149.373 227 150.426 227 151.725V224.648C227 225.947 225.925 227 224.598 227H164.671C158.428 227 152.43 224.62 147.948 220.364L75.6667 151.725V224.648C75.6667 225.947 74.5912 227 73.2645 227H2.40212C1.07546 227 0 225.947 0 224.648V154.078C0 152.779 1.07546 151.725 2.40212 151.725H73.2645H75.6667L0.652131 73.6014C0.233227 73.1652 0 72.5889 0 71.99V2.35233C0 1.05318 1.07546 0 2.40212 0Z" fill="black"/>
<path d="M75.6667 224.648V151.726H73.2645H2.40212C1.07546 151.726 0 152.779 0 154.078V224.648C0 225.947 1.07546 227 2.40212 227H73.2645C74.5912 227 75.6667 225.947 75.6667 224.648Z" fill="#B9682B"/>
</svg>
